HIERARCHY
ROOT Hips
{
 OFFSET 0.000000 0.000000 0.000000
 CHANNELS 6 Xposition Yposition Zposition Yrotation Xrotation Zrotation
 JOINT Chest
 {
  OFFSET 0.000000 10.383400 0.001500
  CHANNELS 3 Yrotation Xrotation Zrotation
  JOINT Chest2
  {
   OFFSET 0.000000 10.418200 -0.003100
   CHANNELS 3 Yrotation Xrotation Zrotation
   JOINT Chest3
   {
    OFFSET 0.000000 10.375100 0.000000
    CHANNELS 3 Yrotation Xrotation Zrotation
    JOINT Chest4
    {
     OFFSET 0.000000 10.364600 0.000000
     CHANNELS 3 Yrotation Xrotation Zrotation
     JOINT Neck
     {
      OFFSET 0.000000 15.642200 0.000000
      CHANNELS 3 Yrotation Xrotation Zrotation
      JOINT Head
      {
       OFFSET 0.000000 9.697300 -0.006500
       CHANNELS 3 Yrotation Xrotation Zrotation
       End Site
       {
        OFFSET 0.000000 18.492200 -0.003400
       }
      }
     }
     JOINT RightCollar
     {
      OFFSET -3.166800 10.349300 0.000000
      CHANNELS 3 Yrotation Xrotation Zrotation
      JOINT RightShoulder
      {
       OFFSET -14.729700 0.000000 0.000000
       CHANNELS 3 Yrotation Xrotation Zrotation
       JOINT RightElbow
       {
        OFFSET 0.000000 -32.224300 0.000000
        CHANNELS 3 Yrotation Xrotation Zrotation
        JOINT RightWrist
        {
         OFFSET 0.000000 -26.084100 0.000000
         CHANNELS 3 Yrotation Xrotation Zrotation
         End Site
         {
          OFFSET 0.000000 -19.319400 0.000000
         }
        }
       }
      }
     }
     JOINT LeftCollar
     {
      OFFSET 3.166800 10.349300 0.000000
      CHANNELS 3 Yrotation Xrotation Zrotation
      JOINT LeftShoulder
      {
       OFFSET 14.729700 0.000000 0.000000
       CHANNELS 3 Yrotation Xrotation Zrotation
       JOINT LeftElbow
       {
        OFFSET 0.000000 -32.224300 0.000000
        CHANNELS 3 Yrotation Xrotation Zrotation
        JOINT LeftWrist
        {
         OFFSET 0.000000 -26.084100 0.000000
         CHANNELS 3 Yrotation Xrotation Zrotation
         End Site
         {
          OFFSET 0.000000 -19.319400 0.000000
         }
        }
       }
      }
     }
    }
   }
  }
 }
 JOINT RightHip
 {
  OFFSET -8.428900 -0.007500 -0.000800
  CHANNELS 3 Yrotation Xrotation Zrotation
  JOINT RightKnee
  {
   OFFSET 0.000000 -43.834600 0.000700
   CHANNELS 3 Yrotation Xrotation Zrotation
   JOINT RightAnkle
   {
    OFFSET 0.000000 -42.757000 0.001200
    CHANNELS 3 Yrotation Xrotation Zrotation
    JOINT RightToe
    {
     OFFSET 0.000000 -6.946900 15.649300
     CHANNELS 3 Yrotation Xrotation Zrotation
     End Site
     {
      OFFSET 0.000000 -1.580800 6.825800
     }
    }
   }
  }
 }
 JOINT LeftHip
 {
  OFFSET 8.428900 -0.007500 -0.000800
  CHANNELS 3 Yrotation Xrotation Zrotation
  JOINT LeftKnee
  {
   OFFSET 0.000000 -43.834600 0.000700
   CHANNELS 3 Yrotation Xrotation Zrotation
   JOINT LeftAnkle
   {
    OFFSET 0.000000 -42.757000 0.001200
    CHANNELS 3 Yrotation Xrotation Zrotation
    JOINT LeftToe
    {
     OFFSET 0.000000 -6.946900 15.649300
     CHANNELS 3 Yrotation Xrotation Zrotation
     End Site
     {
      OFFSET 0.000000 -1.580800 6.825800
     }
    }
   }
  }
 }
}
MOTION
Frames: 12
Frame Time: 0.008333
-0.614753 126.155993 -6.431875 174.302230 -15.929031 -3.573380 -6.028158 16.779182 0.476627 -0.658986 1.838919 0.140496 -1.091837 3.053573 0.221705 -5.228039 14.693269 0.538149 -1.523301 9.025898 4.176267 -2.666662 -16.164759 4.934697 11.198997 -10.004871 -1.021280 26.305125 -17.131811 -5.065774 -162.782977 -51.276480 -173.617832 4.276775 -5.938349 -32.051273 -9.216244 -0.615916 3.176559 -8.123488 -20.614295 -1.929338 101.738193 -39.390762 -146.667358 -3.806567 27.366311 -32.677897 4.582353 -54.241338 7.876328 -117.039023 81.895452 -113.734824 -1.935827 -15.169398 5.422581 -0.073111 0.052991 -0.032483 0.950009 -54.236749 -1.507524 103.348815 81.159108 108.190547 7.290383 -14.007199 -7.738878 -0.032032 -0.026960 -0.014213
-0.592682 126.162272 -6.428427 173.914817 -15.974501 -3.651618 -6.586503 16.883035 0.150206 -0.728422 1.879827 0.114334 -1.205867 3.117119 0.176591 -5.715595 14.747732 0.256018 -1.224391 8.996689 4.100366 -2.318609 -16.195895 4.774347 11.369582 -9.953979 -1.045295 26.187181 -17.103003 -5.017540 -163.289230 -51.226791 -173.263814 4.146594 -5.986075 -31.998788 -9.039079 -0.615378 3.043961 -8.506159 -20.838001 -1.739601 101.473974 -39.355594 -146.272737 -3.867565 27.308179 -32.563278 4.818500 -54.355838 8.187636 -116.680432 81.871639 -113.348171 -1.942516 -14.966210 5.469833 -0.085883 0.049318 -0.038155 1.070792 -54.135946 -1.134613 103.651511 81.244131 108.512492 7.299903 -14.091743 -7.786704 -0.019959 -0.024403 -0.008856
-0.571289 126.168231 -6.423624 173.540694 -16.008065 -3.728155 -7.133498 16.961282 -0.167893 -0.797491 1.920161 0.088048 -1.319139 3.179544 0.131406 -6.183424 14.792804 -0.016744 -0.945429 8.975927 4.009106 -1.989453 -16.217798 4.602355 11.548197 -9.903052 -1.074892 26.068052 -17.074608 -4.970145 -163.791583 -51.172656 -172.909894 4.020540 -6.033281 -31.943672 -8.853061 -0.619522 2.897223 -8.851348 -21.058145 -1.536809 101.167523 -39.297373 -145.865429 -3.939780 27.251900 -32.469001 4.990199 -54.466137 8.531736 -116.203222 81.858838 -112.859869 -1.958069 -14.776180 5.491635 -0.092387 0.049369 -0.041044 1.166888 -54.044897 -0.763134 103.816776 81.314875 108.695283 7.305865 -14.156949 -7.830638 -0.015335 -0.021702 -0.006805
-0.548653 126.174704 -6.420403 173.164931 -16.047852 -3.806959 -7.648738 17.029569 -0.468531 -0.864655 1.959288 0.062047 -1.429067 3.239880 0.086742 -6.622577 14.829759 -0.276464 -0.690143 8.966564 3.901760 -1.682937 -16.227260 4.418691 11.723838 -9.851551 -1.108761 25.959331 -17.048888 -4.931123 -164.307326 -51.113334 -172.552192 3.896606 -6.081503 -31.880336 -8.666810 -0.621851 2.742560 -9.133983 -21.266475 -1.329393 100.819442 -39.213478 -145.465492 -4.021410 27.185505 -32.384699 5.081693 -54.552855 8.945000 -115.590132 81.846937 -112.259725 -1.990059 -14.604959 5.490297 -0.091616 0.048888 -0.040702 1.245423 -53.946500 -0.380808 103.968188 81.372674 108.864664 7.318445 -14.220008 -7.878022 -0.012723 -0.020280 -0.005646
-0.523977 126.181440 -6.418420 172.786476 -16.091170 -3.890934 -8.126292 17.090640 -0.745397 -0.928210 1.996677 0.036530 -1.532739 3.297396 0.042968 -7.023674 14.860901 -0.521181 -0.463130 8.966069 3.780886 -1.404689 -16.227074 4.227426 11.882109 -9.805123 -1.140080 25.868324 -17.026363 -4.905025 -164.826436 -51.050234 -172.198487 3.770282 -6.135619 -31.802249 -8.496625 -0.623305 2.589490 -9.349651 -21.452488 -1.123363 100.457559 -39.107084 -145.095594 -4.101509 27.097622 -32.295963 5.086896 -54.620314 9.435059 -114.849725 81.828076 -111.558334 -2.020722 -14.442904 5.465009 -0.078885 0.052993 -0.035047 1.305735 -53.843060 0.014727 104.090255 81.418978 109.007014 7.345281 -14.286029 -7.942024 -0.012213 -0.024558 -0.005420
-0.496214 126.187522 -6.414938 172.415650 -16.120725 -3.989064 -8.570815 17.140556 -0.987018 -0.987607 2.032276 0.011753 -1.629330 3.351944 0.000632 -7.385695 14.888265 -0.749552 -0.265479 8.965589 3.649927 -1.156758 -16.226790 4.032948 12.022945 -9.773499 -1.166115 25.796227 -17.007845 -4.895495 -165.322949 -50.982980 -171.865453 3.646280 -6.196679 -31.706242 -8.349944 -0.633341 2.449959 -9.501150 -21.607363 -0.930892 100.105403 -38.989874 -144.773525 -4.165621 26.981580 -32.188559 5.006282 -54.688125 9.995582 -114.014524 81.801229 -110.780281 -2.039613 -14.285458 5.408080 -0.055687 0.062134 -0.024744 1.362212 -53.788075 0.395343 104.363547 81.439594 109.329277 7.389528 -14.302561 -8.016869 -0.024816 -0.070214 -0.011006
-0.468019 126.192738 -6.411095 172.041232 -16.139514 -4.081498 -8.974024 17.189653 -1.211388 -1.042294 2.065218 -0.012038 -1.718106 3.402199 -0.039893 -7.709678 14.910596 -0.960894 -0.095467 8.957582 3.513745 -0.938436 -16.234439 3.840439 12.150732 -9.759132 -1.184423 25.739457 -16.995875 -4.903163 -165.778154 -50.911787 -171.564624 3.527672 -6.257057 -31.592479 -8.223042 -0.656600 2.334822 -9.593548 -21.722213 -0.768910 99.771520 -38.878339 -144.511912 -4.205782 26.834167 -32.055942 4.898549 -54.755805 10.574823 -113.140511 81.766473 -109.967432 -2.061095 -14.139698 5.328132 -0.030383 0.072589 -0.013501 1.423784 -53.746392 0.764887 104.629150 81.458926 109.653699 7.420584 -14.308860 -8.061492 -0.030225 -0.109184 -0.013398
-0.444601 126.197551 -6.411295 171.641517 -16.167956 -4.128970 -9.318741 17.250466 -1.456771 -1.090904 2.094144 -0.035026 -1.797052 3.446224 -0.078946 -7.992285 14.926071 -1.157335 0.045140 8.943450 3.379081 -0.753010 -16.248539 3.657596 12.254367 -9.754122 -1.184982 25.699508 -16.990381 -4.925140 -166.188158 -50.838772 -171.296617 3.407646 -6.304113 -31.465785 -8.118160 -0.684230 2.252320 -9.635328 -21.789441 -0.650544 99.458649 -38.789609 -144.318187 -4.211684 26.652400 -31.895193 4.853667 -54.806324 11.086237 -112.292887 81.725275 -109.174007 -2.063238 -14.007677 5.227776 -0.003709 0.084885 -0.001647 1.431413 -53.608603 1.172136 104.436784 81.503842 109.447207 7.469891 -14.431784 -8.169696 -0.017933 -0.053744 -0.007956
-0.420847 126.200976 -6.409922 171.248813 -16.176925 -4.171855 -9.621782 17.295275 -1.685515 -1.133022 2.119176 -0.057650 -1.865339 3.484157 -0.117174 -8.233203 14.936450 -1.342936 0.156118 8.928493 3.250918 -0.601615 -16.263572 3.489640 12.328260 -9.752476 -1.160885 25.674061 -16.989259 -4.956907 -166.546643 -50.765132 -171.061086 3.286868 -6.324861 -31.335420 -8.036176 -0.709613 2.207301 -9.647476 -21.809134 -0.574718 99.172291 -38.727780 -144.186327 -4.181934 26.431827 -31.706386 4.821664 -54.875344 11.555719 -111.503330 81.680291 -108.416961 -2.052265 -13.867506 5.113519 0.003172 0.097641 0.001413 1.469716 -53.527179 1.510233 104.394807 81.517103 109.428319 7.541899 -14.502725 -8.260708 -0.014667 -0.039965 -0.006508
-0.395989 126.203628 -6.408328 170.862708 -16.177509 -4.212695 -9.880172 17.333203 -1.895825 -1.168803 2.141472 -0.080077 -1.923178 3.517851 -0.154850 -8.434102 14.946385 -1.519972 0.241025 8.914488 3.130796 -0.480659 -16.277635 3.337131 12.379263 -9.757312 -1.116156 25.652233 -16.991757 -4.989237 -166.840932 -50.691724 -170.860752 3.174549 -6.317726 -31.204133 -7.971490 -0.735155 2.198924 -9.670115 -21.790254 -0.521904 98.931521 -38.680039 -144.100469 -4.132860 26.176508 -31.498499 4.848262 -54.946356 11.943373 -110.746636 81.645736 -107.647395 -2.014945 -13.738549 5.012458 0.002758 0.117448 0.001230 1.526558 -53.471410 1.806080 104.409189 81.514470 109.496709 7.608359 -14.553657 -8.349803 -0.016617 -0.045567 -0.007373
-0.365128 126.206601 -6.407425 170.490136 -16.183842 -4.279046 -10.091289 17.383373 -2.062846 -1.198334 2.162319 -0.101964 -1.970946 3.549532 -0.191450 -8.595535 14.961269 -1.687073 0.301358 8.899087 3.017533 -0.388141 -16.293231 3.198381 12.414296 -9.778571 -1.059346 25.628312 -16.993941 -5.014332 -167.073501 -50.619278 -170.690777 3.079734 -6.291218 -31.073473 -7.916211 -0.766040 2.218859 -9.736675 -21.745366 -0.472432 98.748587 -38.641971 -144.044479 -4.075984 25.895972 -31.285108 4.920225 -54.999332 12.277378 -109.945223 81.620713 -106.771862 -1.956373 -13.674212 4.906990 -0.004724 0.195916 -0.002089 1.532185 -53.410848 2.123896 104.387983 81.499497 109.540432 7.705384 -14.592672 -8.448554 -0.034275 -0.056644 -0.015209
-0.349109 126.206991 -6.405201 170.083496 -16.170163 -4.245669 -10.241901 17.396487 -2.292419 -1.221874 2.182447 -0.122741 -2.008971 3.580271 -0.226055 -8.718798 14.983885 -1.841171 0.335650 8.879773 2.908360 -0.325021 -16.313053 3.070774 12.438532 -9.818501 -0.999346 25.609004 -16.992334 -5.035392 -167.272258 -50.547679 -170.535879 3.007185 -6.248156 -30.951649 -7.869539 -0.806063 2.250413 -9.847563 -21.684336 -0.415077 98.618025 -38.616094 -144.008425 -4.008322 25.608200 -31.074121 4.967526 -55.122041 12.564642 -109.638489 81.596797 -106.478336 -1.875372 -13.447446 4.779662 0.005889 0.095295 0.002620 1.669087 -53.371377 2.280667 104.330687 81.472772 109.550249 7.805391 -14.638164 -8.567514 -0.015755 -0.056386 -0.006990
